<svg width="24" height="24" viewBox="0 0 24 24" fill="none" xmlns="http://www.w3.org/2000/svg">
<path opacity="0.4" d="M22 12C22 17.515 17.514 22 12 22C6.486 22 2 17.515 2 12C2 6.486 6.486 2 12 2C17.514 2 22 6.486 22 12Z" fill="#00923F"/>
<path d="M16.2206 10.558C16.2206 10.749 16.1476 10.941 16.0016 11.087L12.5316 14.574C12.3906 14.715 12.1996 14.794 11.9996 14.794C11.8006 14.794 11.6096 14.715 11.4686 14.574L7.99658 11.087C7.70458 10.794 7.70458 10.32 7.99858 10.027C8.29258 9.73497 8.76758 9.73597 9.05958 10.029L11.9996 12.982L14.9396 10.029C15.2316 9.73597 15.7056 9.73497 15.9996 10.027C16.1476 10.173 16.2206 10.366 16.2206 10.558Z" fill="#00923F"/>
</svg>
