<svg width="40" height="40" viewBox="0 0 40 40" fill="none" xmlns="http://www.w3.org/2000/svg">
<path fill-rule="evenodd" clip-rule="evenodd" d="M5 28.117V15.4287H35V28.2187C35 33.4504 31.7069 36.667 26.438 36.667H13.5456C8.32602 36.667 5 33.3837 5 28.117ZM13.2657 24.017C12.5083 24.052 11.8826 23.4504 11.8497 22.6854C11.8497 21.9187 12.4424 21.2854 13.1998 21.2504C13.9408 21.2504 14.55 21.8354 14.5665 22.5837C14.5994 23.352 14.0066 23.9854 13.2657 24.017ZM20.0329 24.017C19.2755 24.052 18.6499 23.4504 18.6169 22.6854C18.6169 21.9187 19.2097 21.2854 19.9671 21.2504C20.708 21.2504 21.3172 21.8354 21.3337 22.5837C21.3666 23.352 20.7739 23.9854 20.0329 24.017ZM26.7508 30.1504C25.9934 30.1337 25.3841 29.5004 25.3841 28.7337C25.3677 27.967 25.9769 27.3354 26.7343 27.3187H26.7508C27.5246 27.3187 28.1503 27.952 28.1503 28.7337C28.1503 29.517 27.5246 30.1504 26.7508 30.1504ZM18.6169 28.7337C18.6499 29.5004 19.2755 30.102 20.0329 30.067C20.7739 30.0354 21.3666 29.402 21.3337 28.6354C21.3172 27.8854 20.708 27.3004 19.9671 27.3004C19.2097 27.3354 18.6169 27.967 18.6169 28.7337ZM11.8331 28.7337C11.8661 29.5004 12.4917 30.102 13.2492 30.067C13.9901 30.0354 14.5829 29.402 14.5499 28.6354C14.5335 27.8854 13.9242 27.3004 13.1833 27.3004C12.4259 27.3354 11.8331 27.967 11.8331 28.7337ZM25.4007 22.6687C25.4007 21.902 25.9935 21.2854 26.7509 21.2687C27.4918 21.2687 28.0846 21.867 28.1175 22.602C28.134 23.3687 27.5412 24.002 26.8003 24.017C26.0429 24.0337 25.4172 23.4504 25.4007 22.6854V22.6687Z" fill="white"/>
<path opacity="0.4" d="M5.00562 15.4286C5.02702 14.4502 5.10935 12.5086 5.26412 11.8836C6.05446 8.36856 8.73833 6.13523 12.5748 5.81689H27.4266C31.2301 6.15189 33.9469 8.40023 34.7372 11.8836C34.8904 12.4919 34.9727 14.4486 34.9941 15.4286H5.00562Z" fill="white"/>
<path d="M13.8416 10.9835C14.566 10.9835 15.1094 10.4352 15.1094 9.70016V4.6185C15.1094 3.8835 14.566 3.3335 13.8416 3.3335C13.1171 3.3335 12.5737 3.8835 12.5737 4.6185V9.70016C12.5737 10.4352 13.1171 10.9835 13.8416 10.9835Z" fill="white"/>
<path d="M26.1582 10.9835C26.8662 10.9835 27.4261 10.4352 27.4261 9.70016V4.6185C27.4261 3.8835 26.8662 3.3335 26.1582 3.3335C25.4337 3.3335 24.8904 3.8835 24.8904 4.6185V9.70016C24.8904 10.4352 25.4337 10.9835 26.1582 10.9835Z" fill="white"/>
</svg>
