<svg width="30" height="34" viewBox="0 0 30 34" fill="none" xmlns="http://www.w3.org/2000/svg">
<path fill-rule="evenodd" clip-rule="evenodd" d="M0 25.1167V12.4283H30V25.2183C30 30.45 26.7069 33.6667 21.438 33.6667H8.54555C3.32602 33.6667 0 30.3833 0 25.1167ZM8.2657 21.0167C7.5083 21.0517 6.88261 20.45 6.84968 19.685C6.84968 18.9183 7.44243 18.285 8.19984 18.25C8.94079 18.25 9.55001 18.835 9.56647 19.5833C9.5994 20.3517 9.00665 20.985 8.2657 21.0167ZM15.0329 21.0167C14.2755 21.0517 13.6499 20.45 13.6169 19.685C13.6169 18.9183 14.2097 18.285 14.9671 18.25C15.708 18.25 16.3172 18.835 16.3337 19.5833C16.3666 20.3517 15.7739 20.985 15.0329 21.0167ZM21.7508 27.15C20.9934 27.1333 20.3841 26.5 20.3841 25.7333C20.3677 24.9667 20.9769 24.335 21.7343 24.3183H21.7508C22.5246 24.3183 23.1503 24.9517 23.1503 25.7333C23.1503 26.5167 22.5246 27.15 21.7508 27.15ZM13.6169 25.7333C13.6499 26.5 14.2755 27.1017 15.0329 27.0667C15.7739 27.035 16.3666 26.4017 16.3337 25.635C16.3172 24.885 15.708 24.3 14.9671 24.3C14.2097 24.335 13.6169 24.9667 13.6169 25.7333ZM6.83313 25.7333C6.86606 26.5 7.49174 27.1017 8.24915 27.0667C8.9901 27.035 9.58285 26.4017 9.54992 25.635C9.53345 24.885 8.92423 24.3 8.18329 24.3C7.42588 24.335 6.83313 24.9667 6.83313 25.7333ZM20.4007 19.6683C20.4007 18.9017 20.9935 18.285 21.7509 18.2683C22.4918 18.2683 23.0846 18.8667 23.1175 19.6017C23.134 20.3683 22.5412 21.0017 21.8003 21.0167C21.0429 21.0333 20.4172 20.45 20.4007 19.685V19.6683Z" fill="white"/>
<path opacity="0.4" d="M0.00561523 12.4282C0.0270203 11.4498 0.109347 9.50816 0.264122 8.88316C1.05446 5.36816 3.73833 3.13483 7.57477 2.8165H22.4266C26.2301 3.1515 28.9469 5.39983 29.7372 8.88316C29.8904 9.4915 29.9727 11.4482 29.9941 12.4282H0.00561523Z" fill="white"/>
<path d="M8.84157 7.98333C9.56605 7.98333 10.1094 7.43499 10.1094 6.69999V1.61833C10.1094 0.883328 9.56605 0.333328 8.84157 0.333328C8.11709 0.333328 7.57373 0.883328 7.57373 1.61833V6.69999C7.57373 7.43499 8.11709 7.98333 8.84157 7.98333Z" fill="white"/>
<path d="M21.1582 7.98333C21.8662 7.98333 22.4261 7.43499 22.4261 6.69999V1.61833C22.4261 0.883328 21.8662 0.333328 21.1582 0.333328C20.4337 0.333328 19.8904 0.883328 19.8904 1.61833V6.69999C19.8904 7.43499 20.4337 7.98333 21.1582 7.98333Z" fill="white"/>
</svg>
