<svg width="30" height="30" viewBox="0 0 30 30" fill="none" xmlns="http://www.w3.org/2000/svg">
<path opacity="0.4" d="M18.0229 6.86244C17.4278 6.75252 16.8813 7.13226 16.768 7.71311C16.6547 8.29396 17.0357 8.86107 17.6145 8.97474C19.3574 9.31451 20.7031 10.6636 21.0442 12.4124V12.4136C21.1413 12.917 21.5845 13.283 22.0949 13.283C22.1633 13.283 22.2318 13.2768 22.3015 13.2643C22.8804 13.1481 23.2613 12.5823 23.148 12.0002C22.6389 9.38821 20.6284 7.37084 18.0229 6.86244Z" fill="#0775D9"/>
<path opacity="0.4" d="M17.9451 2.50991C17.6662 2.46994 17.3861 2.55238 17.1633 2.72976C16.9342 2.90964 16.7911 3.16946 16.76 3.46051C16.694 4.04886 17.1185 4.58099 17.7061 4.64719C21.7581 5.09938 24.9077 8.25597 25.3633 12.3207C25.4243 12.8653 25.8812 13.2763 26.4264 13.2763C26.4675 13.2763 26.5074 13.2738 26.5484 13.2688C26.8335 13.2375 27.0875 13.0964 27.2667 12.8715C27.4447 12.6467 27.5257 12.3669 27.4933 12.0808C26.9256 7.00932 23.0005 3.07328 17.9451 2.50991Z" fill="#0775D9"/>
<path d="M22.0061 18.3413C21.1957 18.1689 20.5546 18.5437 19.9869 18.8709C19.4056 19.2082 18.2989 20.1013 17.6665 19.8715C14.4223 18.5424 11.3711 15.7131 10.0503 12.4703C9.81753 11.8245 10.7101 10.7165 11.045 10.1319C11.3724 9.56484 11.7409 8.91903 11.5728 8.10709C11.4209 7.37634 9.45651 4.8868 8.76187 4.20602C8.30251 3.75632 7.83444 3.50899 7.35267 3.46777C5.54138 3.39158 3.51845 5.79867 3.16366 6.37453C2.27357 7.60243 2.2798 9.23631 3.1786 11.2175C5.34469 16.5388 13.5372 24.5695 18.9002 26.808C19.8886 27.2689 20.7949 27.5 21.6078 27.5C22.4032 27.5 23.1116 27.2789 23.7203 26.8405C24.1784 26.5769 26.6956 24.4621 26.6283 22.6096C26.5898 22.1375 26.342 21.6653 25.8964 21.2081C25.2167 20.5098 22.7344 18.495 22.0061 18.3413Z" fill="#0775D9"/>
</svg>
