<svg width="34" height="34" viewBox="0 0 34 34" fill="none" xmlns="http://www.w3.org/2000/svg">
<path opacity="0.4" d="M24.7928 0.333328H9.22239C3.54831 0.333328 0.333496 3.54814 0.333496 9.22222V24.7778C0.333496 30.4518 3.54831 33.6667 9.22239 33.6667H24.7928C30.4668 33.6667 33.6668 30.4518 33.6668 24.7778V9.22222C33.6668 3.54814 30.4668 0.333328 24.7928 0.333328Z" fill="white"/>
<path d="M9.2811 12.615C8.52554 12.615 7.90332 13.2372 7.90332 14.0075V25.4594C7.90332 26.215 8.52554 26.8372 9.2811 26.8372C10.0515 26.8372 10.6737 26.215 10.6737 25.4594V14.0075C10.6737 13.2372 10.0515 12.615 9.2811 12.615Z" fill="white"/>
<path d="M17.0589 7.14829C16.3034 7.14829 15.6812 7.77051 15.6812 8.54089V25.4594C15.6812 26.215 16.3034 26.8372 17.0589 26.8372C17.8293 26.8372 18.4515 26.215 18.4515 25.4594V8.54089C18.4515 7.77051 17.8293 7.14829 17.0589 7.14829Z" fill="white"/>
<path d="M24.7334 18.6594C23.963 18.6594 23.3408 19.2816 23.3408 20.052V25.4594C23.3408 26.215 23.963 26.8372 24.7186 26.8372C25.489 26.8372 26.1112 26.215 26.1112 25.4594V20.052C26.1112 19.2816 25.489 18.6594 24.7334 18.6594Z" fill="white"/>
</svg>
