<svg width="30" height="34" viewBox="0 0 30 34" fill="none" xmlns="http://www.w3.org/2000/svg">
<path opacity="0.4" d="M21.985 0.333328H8.01667C2.95 0.333328 0 3.29999 0 8.38333V25.6C0 30.7667 2.95 33.6667 8.01667 33.6667H21.985C27.1333 33.6667 30 30.7667 30 25.6V8.38333C30 3.29999 27.1333 0.333328 21.985 0.333328Z" fill="white"/>
<path fill-rule="evenodd" clip-rule="evenodd" d="M8.46666 8.08332V8.09999C7.74833 8.09999 7.16666 8.68332 7.16666 9.39999C7.16666 10.1167 7.74833 10.7 8.46666 10.7H13.4483C14.1667 10.7 14.75 10.1167 14.75 9.38165C14.75 8.66665 14.1667 8.08332 13.4483 8.08332H8.46666ZM21.5333 18.2333H8.46666C7.74833 18.2333 7.16666 17.65 7.16666 16.9333C7.16666 16.2167 7.74833 15.6317 8.46666 15.6317H21.5333C22.25 15.6317 22.8333 16.2167 22.8333 16.9333C22.8333 17.65 22.25 18.2333 21.5333 18.2333ZM21.5333 25.85H8.4666C7.9666 25.9167 7.48327 25.6667 7.2166 25.25C6.94993 24.8167 6.94993 24.2667 7.2166 23.85C7.48327 23.4167 7.9666 23.1833 8.4666 23.2333H21.5333C22.1983 23.3 22.6999 23.8667 22.6999 24.55C22.6999 25.215 22.1983 25.7833 21.5333 25.85Z" fill="white"/>
</svg>
