<svg width="30" height="30" viewBox="0 0 30 30" fill="none" xmlns="http://www.w3.org/2000/svg">
<path opacity="0.4" d="M28.3209 26.5887H18.8304C17.9045 26.5887 17.1514 27.3538 17.1514 28.2944C17.1514 29.2368 17.9045 30 18.8304 30H28.3209C29.2468 30 29.9999 29.2368 29.9999 28.2944C29.9999 27.3538 29.2468 26.5887 28.3209 26.5887Z" fill="white"/>
<path d="M12.1817 6.50647L21.1748 13.7733C21.3917 13.9471 21.4288 14.266 21.2595 14.4881L10.5979 28.3804C9.9277 29.2386 8.94003 29.7241 7.88181 29.742L2.0616 29.8137C1.75119 29.8173 1.47958 29.6023 1.40903 29.2941L0.0862579 23.543C-0.143023 22.4859 0.0862579 21.393 0.756463 20.551L11.4709 6.59246C11.6438 6.36851 11.963 6.3291 12.1817 6.50647Z" fill="white"/>
<path opacity="0.4" d="M25.2009 9.4424L23.4672 11.6067C23.2926 11.827 22.9786 11.8629 22.7617 11.6873C20.6541 9.98168 15.2572 5.60474 13.7598 4.39182C13.5411 4.21265 13.5111 3.89375 13.6875 3.67159L15.3595 1.5951C16.8762 -0.357772 19.5218 -0.536934 21.6559 1.16511L24.1074 3.11797C25.1127 3.90629 25.7829 4.94543 26.0122 6.03832C26.2768 7.2405 25.9946 8.42117 25.2009 9.4424Z" fill="white"/>
</svg>
