<svg width="24" height="24" viewBox="0 0 24 24" fill="none" xmlns="http://www.w3.org/2000/svg">
<path fill-rule="evenodd" clip-rule="evenodd" d="M4.90526 1.63465C5.71415 0.824129 7.10775 0.735256 7.92669 1.68019L11.2855 5.55732C11.2938 5.56618 11.3019 5.5752 11.3099 5.5844C12.0492 6.43795 11.8978 7.66991 11.1618 8.40951L11.1604 8.41097L10.0881 9.48402C11.1948 11.2798 12.7054 12.7926 14.4995 13.902L15.574 12.8259C16.3104 12.0878 17.5385 11.9352 18.3913 12.6673C18.3914 12.6674 18.3913 12.6673 18.3913 12.6673L22.3113 16.0323C23.2641 16.8508 23.1764 18.2509 22.3651 19.0622L19.5577 21.8746C18.4562 22.9775 16.773 23.3365 15.3693 22.6547C9.24587 19.6865 4.30403 14.7377 1.34452 8.61003C0.664185 7.20621 1.02262 5.52378 2.12326 4.42165M2.12326 4.42165L4.90526 1.63465C4.90531 1.6346 4.90521 1.63469 4.90526 1.63465M14.1945 14.2078C14.1973 14.2048 14.2002 14.2019 14.203 14.199L14.1945 14.2078ZM9.78375 9.78821L9.79267 9.77949C9.78973 9.78243 9.78676 9.78533 9.78375 9.78821ZM9.79308 6.88543C9.79312 6.8854 9.79331 6.88584 9.79352 6.88686L9.79308 6.88543ZM9.79394 6.89001L6.42326 2.99922C6.42206 2.99915 6.42069 2.99911 6.41914 2.99911C6.39897 2.99918 6.36035 3.00789 6.32088 3.04745L3.53874 5.83459C2.98398 6.39002 2.86815 7.16876 3.14465 7.73851L3.14547 7.74021C5.90911 13.4623 10.5239 18.0836 16.2422 20.8553C16.8104 21.1313 17.5879 21.0165 18.1423 20.4616C18.1423 20.4616 18.1422 20.4617 18.1423 20.4616L20.9503 17.6486C20.9901 17.6088 20.9998 17.5687 20.9999 17.5474C20.9999 17.5454 20.9998 17.5437 20.9997 17.5422L17.0945 14.1899C17.0922 14.1897 17.0887 14.1896 17.0837 14.19C17.0617 14.1916 17.0254 14.2028 16.99 14.2384L15.6314 15.5989C15.4117 15.8247 15.1248 15.9735 14.8135 16.023C14.4974 16.0733 14.1735 16.0185 13.8915 15.8669C13.887 15.8645 13.8825 15.862 13.878 15.8595C13.874 15.8573 13.87 15.855 13.866 15.8527C11.4833 14.4806 9.50675 12.5015 8.13776 10.117C8.13312 10.1089 8.12859 10.1008 8.12418 10.0926C7.97259 9.81056 7.91771 9.4866 7.96793 9.1704C8.01738 8.85909 8.16603 8.57222 8.39153 8.35237L9.74418 6.99873C9.74433 6.99857 9.74403 6.99888 9.74418 6.99873C9.78031 6.96221 9.7923 6.92428 9.7939 6.9013C9.79425 6.89623 9.79416 6.89254 9.79394 6.89001ZM17.0983 14.1906C17.0982 14.1906 17.0978 14.1905 17.097 14.1902L17.0983 14.1906ZM17.0886 14.1849C17.0887 14.1849 17.0886 14.1849 17.0886 14.1849V14.1849Z" fill="#C4C4C4"/>
</svg>
