<svg width="24" height="24" viewBox="0 0 24 24" fill="none" xmlns="http://www.w3.org/2000/svg">
<path d="M18.6301 6.39992L19.8294 5.5H18.33H5.67H4.17063L5.3699 6.39992L11.6999 11.1499L12 11.3751L12.3001 11.1499L18.6301 6.39992ZM4.3 6.85L3.5 6.25V7.25V17C3.5 17.3978 3.65804 17.7794 3.93934 18.0607C4.22065 18.342 4.60218 18.5 5 18.5H19C19.3978 18.5 19.7794 18.342 20.0607 18.0607C20.342 17.7794 20.5 17.3978 20.5 17V7.25V6.25L19.7 6.85L12.3 12.4C12.2135 12.4649 12.1082 12.5 12 12.5C11.8918 12.5 11.7865 12.4649 11.7 12.4L4.3 6.85ZM5 4.5H19C19.663 4.5 20.2989 4.76339 20.7678 5.23223C21.2366 5.70107 21.5 6.33696 21.5 7V17C21.5 17.663 21.2366 18.2989 20.7678 18.7678C20.2989 19.2366 19.663 19.5 19 19.5H5C4.33696 19.5 3.70107 19.2366 3.23223 18.7678C2.76339 18.2989 2.5 17.663 2.5 17V7C2.5 6.33696 2.76339 5.70107 3.23223 5.23223C3.70107 4.76339 4.33696 4.5 5 4.5Z" fill="black" stroke="#C4C4C4"/>
</svg>
