<svg width="32" height="34" viewBox="0 0 32 34" fill="none" xmlns="http://www.w3.org/2000/svg">
<path opacity="0.4" d="M8.1604 7.74333C8.1604 3.65833 11.5934 0.333328 15.8128 0.333328H24.2C28.409 0.333328 31.8334 3.64999 31.8334 7.72666V26.2533C31.8334 30.34 28.4022 33.6667 24.1828 33.6667H15.7956C11.5865 33.6667 8.1604 30.3483 8.1604 26.27V24.7033V7.74333Z" fill="white"/>
<path d="M22.7291 16.0897L17.7826 11.2413C17.2713 10.7413 16.4486 10.7413 15.939 11.2447C15.4312 11.748 15.4329 12.5597 15.9424 13.0597L18.651 15.7147H1.47024C0.750782 15.7147 0.166748 16.2897 0.166748 16.9997C0.166748 17.708 0.750782 18.2813 1.47024 18.2813H18.651L15.9424 20.938C15.4329 21.438 15.4312 22.2497 15.939 22.753C16.1947 23.0047 16.5282 23.1313 16.8633 23.1313C17.1951 23.1313 17.5286 23.0047 17.7826 22.7563L22.7291 17.908C22.9745 17.6663 23.1134 17.3397 23.1134 16.9997C23.1134 16.658 22.9745 16.3313 22.7291 16.0897Z" fill="white"/>
</svg>
