<svg width="30" height="34" viewBox="0 0 30 34" fill="none" xmlns="http://www.w3.org/2000/svg">
<path opacity="0.4" d="M26.3479 12.035C25.5954 12.035 24.5987 12.0183 23.3577 12.0183C20.3311 12.0183 17.8425 9.51333 17.8425 6.45833V1.09833C17.8425 0.676662 17.5058 0.333328 17.0883 0.333328H8.27263C4.15853 0.333328 0.833252 3.70999 0.833252 7.84833V25.8067C0.833252 30.1483 4.31695 33.6667 8.61588 33.6667H21.7437C25.843 33.6667 29.1666 30.3117 29.1666 26.17V12.785C29.1666 12.3617 28.8316 12.02 28.4124 12.0217C27.7078 12.0267 26.8628 12.035 26.3479 12.035Z" fill="white"/>
<path opacity="0.4" d="M21.8066 1.27883C21.3082 0.760494 20.4382 1.11716 20.4382 1.83549V6.23049C20.4382 8.07383 21.9566 9.59049 23.7999 9.59049C24.9616 9.60383 26.5749 9.60716 27.9449 9.60383C28.6466 9.60216 29.0032 8.76383 28.5166 8.25716C26.7582 6.42883 23.6099 3.15216 21.8066 1.27883Z" fill="white"/>
<path fill-rule="evenodd" clip-rule="evenodd" d="M9.95655 15.9793H15.5982C16.2832 15.9793 16.8399 15.4243 16.8399 14.7393C16.8399 14.0543 16.2832 13.4977 15.5982 13.4977H9.95655C9.27155 13.4977 8.71655 14.0543 8.71655 14.7393C8.71655 15.4243 9.27155 15.9793 9.95655 15.9793ZM9.95665 24.303H19.03C19.715 24.303 20.2717 23.748 20.2717 23.063C20.2717 22.378 19.715 21.8213 19.03 21.8213H9.95665C9.27165 21.8213 8.71665 22.378 8.71665 23.063C8.71665 23.748 9.27165 24.303 9.95665 24.303Z" fill="white"/>
</svg>
