<svg width="42" height="42" viewBox="0 0 42 42" fill="none" xmlns="http://www.w3.org/2000/svg">
<path fill-rule="evenodd" clip-rule="evenodd" d="M35.4067 6.67431C33.5356 4.79081 31.3092 3.29733 28.8567 2.2804C26.4042 1.26347 23.7742 0.743317 21.1193 0.750065C9.98625 0.750065 0.92325 9.81082 0.91875 20.9483C0.91875 24.5078 1.848 27.9818 3.61425 31.0463L0.75 41.5111L11.4577 38.7008C14.4196 40.3132 17.7379 41.1586 21.1102 41.1601H21.1193C32.25 41.1601 41.313 32.0993 41.3175 20.9618C41.3251 18.3079 40.8067 15.6788 39.7922 13.2264C38.7776 10.7741 37.2871 8.54715 35.4067 6.67431ZM21.1193 37.7513H21.1125C18.1054 37.7516 15.1537 36.9426 12.567 35.4091L11.955 35.0446L5.601 36.7118L7.29525 30.5176L6.897 29.8831C5.21577 27.2065 4.32577 24.1091 4.32975 20.9483C4.33425 11.6918 11.865 4.16106 21.126 4.16106C23.3316 4.15616 25.5162 4.58875 27.5535 5.43378C29.5907 6.27881 31.4402 7.51951 32.9947 9.08406C34.5576 10.6412 35.7964 12.4926 36.6395 14.5313C37.4826 16.57 37.9132 18.7557 37.9065 20.9618C37.902 30.2183 30.3713 37.7513 21.1193 37.7513ZM30.3285 25.1761C29.8223 24.9218 27.3428 23.7023 26.8792 23.5336C26.418 23.3648 26.0828 23.2816 25.7453 23.7856C25.4078 24.2896 24.4403 25.4258 24.1455 25.7633C23.8507 26.1008 23.556 26.1413 23.052 25.8893C22.548 25.6373 20.9212 25.1041 18.993 23.3851C17.4923 22.0463 16.4797 20.3948 16.185 19.8886C15.8902 19.3823 16.1535 19.1101 16.4077 18.8581C16.635 18.6331 16.9118 18.2686 17.1637 17.9738C17.4158 17.6791 17.499 17.4698 17.6677 17.1323C17.8365 16.7948 17.7533 16.5001 17.625 16.2481C17.499 15.9938 16.4887 13.5098 16.068 12.4996C15.6607 11.5208 15.2445 11.6513 14.934 11.6378C14.6124 11.6247 14.2906 11.6187 13.9688 11.6198C13.7128 11.6263 13.461 11.6857 13.2291 11.7941C12.9972 11.9025 12.7901 12.0576 12.621 12.2498C12.1575 12.7561 10.8548 13.9756 10.8548 16.4596C10.8548 18.9436 12.6637 21.3443 12.9157 21.6818C13.1677 22.0193 16.4753 27.1156 21.5378 29.3026C22.7438 29.8223 23.6842 30.1328 24.4155 30.3668C25.6237 30.7516 26.724 30.6953 27.5947 30.5671C28.5645 30.4231 30.5805 29.3476 31.0012 28.1686C31.422 26.9896 31.422 25.9793 31.296 25.7678C31.17 25.5563 30.8302 25.4281 30.3285 25.1761Z" fill="#25D366"/>
</svg>
